# xmcd
#
# Track frame offsets:
# 150
# 17449
# 36597
# 51835
# 69126
# 88275
#
# Disc length: 1379 seconds
#
#
# Revision: 0
# Processed by: cddbd v1.5.1PL0 Copyright (c) Steve Scherf et al.
# Submitted via: FreeRIP 2.51 
#
DISCID=48056106
DTITLE=Bako - A Ke Jugamos?
DYEAR=2004
DGENRE=Hip Hop
TTITLE0=Masticar tu soledad
TTITLE1=A Ke Jugamos? con Xtralargos (Grosso Modo)
TTITLE2=Despidete
TTITLE3=Masticar tu soledad inst.
TTITLE4=A Ke Jugamos? inst.
TTITLE5=Despidete inst.
EXTD=
EXTT0=
EXTT1=
EXTT2=
EXTT3=
EXTT4=
EXTT5=
PLAYORDER=
